<svg width="661" height="629" viewBox="0 0 661 629" fill="none" xmlns="http://www.w3.org/2000/svg">
<path d="M36.7222 0H624.278V78.625H536.144H418.633H345.189H264.4H183.611H132.2H80.7888H36.7222V0Z" fill="black"/>
<rect x="37" y="78" width="183.611" height="39.3125" fill="black"/>
<rect x="37" y="117" width="36.7222" height="39.3125" fill="black"/>
<rect x="110.444" y="117" width="110.167" height="39.3125" fill="black"/>
<rect x="183.889" y="156" width="36.7222" height="39.3125" fill="black"/>
<rect x="257.056" y="78" width="36.7222" height="78.625" fill="black"/>
<rect x="293" y="78" width="334" height="39" fill="black"/>
<rect x="330" y="116" width="146.889" height="78.625" fill="black"/>
<rect x="513.333" y="116" width="73.4444" height="39.3125" fill="black"/>
<rect x="403.444" y="193" width="36.7222" height="39.3125" fill="black"/>
<rect x="330" y="193" width="36.7222" height="39.3125" fill="black"/>
<rect width="37" height="629" fill="black"/>
<rect x="624" width="37" height="629" fill="black"/>
<rect x="37" y="590" width="587" height="39" fill="black"/>
</svg>
