<svg width="492" height="450" viewBox="0 0 492 450" fill="none" xmlns="http://www.w3.org/2000/svg">
<rect width="492" height="450" fill="white"/>
<path fill-rule="evenodd" clip-rule="evenodd" d="M7.63719 70.6657C17.5511 65.4705 140.112 1.43904 161.112 0H491C492 0.525054 492.5 399 491 401C489.5 403 411 450 411 450V71L411 450H387.994H23.0061V426.439H387.994L387.994 140.684H364.85V163.829H319.183V140.684H296.522V187.579H273.689V210.348H250.855V187.579H228.022V210.348H205.189V187.579V186.598V140.684H182.667V164.622H159.833V117.5H137.173L137.173 140.684L137.173 164.245V187.995H114.339V164.434H68.6726V140.872H45.8392V164.434H23.0061V450H11.503C5.15008 450 0 444.85 0 438.497V81.503C0 76.5063 3.18589 72.2537 7.63719 70.6657Z" fill="black"/>
</svg>
