<svg width="64" height="11" viewBox="0 0 64 11" fill="none" xmlns="http://www.w3.org/2000/svg">
<g opacity="0.01" clip-path="url(#clip0_1_3)">
<path d="M1.91716 10C1.73316 10 1.57316 9.932 1.43716 9.796C1.30116 9.66 1.23316 9.5 1.23316 9.316V1.924C1.23316 1.74 1.30116 1.58 1.43716 1.444C1.57316 1.308 1.73316 1.24 1.91716 1.24H2.21716C2.42516 1.24 2.61716 1.296 2.79316 1.408C2.96916 1.52 3.09716 1.668 3.17716 1.852L5.27716 6.388C5.27716 6.396 5.28116 6.4 5.28916 6.4C5.29716 6.4 5.30116 6.396 5.30116 6.388L7.40116 1.852C7.48116 1.668 7.60916 1.52 7.78516 1.408C7.96116 1.296 8.15316 1.24 8.36116 1.24H8.70916C8.89316 1.24 9.05316 1.308 9.18916 1.444C9.32516 1.58 9.39316 1.74 9.39316 1.924V9.316C9.39316 9.5 9.32516 9.66 9.18916 9.796C9.05316 9.932 8.89316 10 8.70916 10H8.44516C8.26116 10 8.10116 9.932 7.96516 9.796C7.82916 9.66 7.76116 9.5 7.76116 9.316V4.096C7.76116 4.088 7.75716 4.084 7.74916 4.084C7.74116 4.084 7.73716 4.088 7.73716 4.096L6.29716 7.18C6.20916 7.364 6.07316 7.516 5.88916 7.636C5.71316 7.748 5.52516 7.804 5.32516 7.804H5.25316C5.05316 7.804 4.86116 7.748 4.67716 7.636C4.50116 7.516 4.36916 7.364 4.28116 7.18L2.84116 4.096C2.84116 4.088 2.83716 4.084 2.82916 4.084C2.82116 4.084 2.81716 4.088 2.81716 4.096V9.316C2.81716 9.5 2.74916 9.66 2.61316 9.796C2.47716 9.932 2.31716 10 2.13316 10H1.91716ZM12.2118 10C12.0278 10 11.8678 9.932 11.7318 9.796C11.5958 9.66 11.5278 9.5 11.5278 9.316V1.924C11.5278 1.74 11.5958 1.58 11.7318 1.444C11.8678 1.308 12.0278 1.24 12.2118 1.24H12.6918C12.8758 1.24 13.0358 1.308 13.1718 1.444C13.3078 1.58 13.3758 1.74 13.3758 1.924V9.316C13.3758 9.5 13.3078 9.66 13.1718 9.796C13.0358 9.932 12.8758 10 12.6918 10H12.2118ZM16.1786 10C15.9946 10 15.8346 9.932 15.6986 9.796C15.5706 9.66 15.5066 9.5 15.5066 9.316V1.924C15.5066 1.74 15.5706 1.58 15.6986 1.444C15.8346 1.308 15.9946 1.24 16.1786 1.24H16.5026C16.6866 1.24 16.8466 1.308 16.9826 1.444C17.1186 1.58 17.1866 1.74 17.1866 1.924V5.032C17.1866 5.04 17.1906 5.044 17.1986 5.044C17.2066 5.044 17.2106 5.04 17.2106 5.032L19.6226 1.792C19.8866 1.424 20.2466 1.24 20.7026 1.24H21.3026C21.4386 1.24 21.5386 1.304 21.6026 1.432C21.6666 1.56 21.6546 1.676 21.5666 1.78L18.8066 5.356C18.7666 5.412 18.7666 5.468 18.8066 5.524L21.6986 9.448C21.7866 9.56 21.7986 9.68 21.7346 9.808C21.6706 9.936 21.5666 10 21.4226 10H20.8226C20.3666 10 20.0106 9.816 19.7546 9.448L17.2106 5.848C17.2106 5.84 17.2066 5.836 17.1986 5.836C17.1906 5.836 17.1866 5.84 17.1866 5.848V9.316C17.1866 9.5 17.1186 9.66 16.9826 9.796C16.8466 9.932 16.6866 10 16.5026 10H16.1786ZM23.9892 10C23.8052 10 23.6452 9.932 23.5092 9.796C23.3732 9.66 23.3052 9.5 23.3052 9.316V1.924C23.3052 1.74 23.3732 1.58 23.5092 1.444C23.6452 1.308 23.8052 1.24 23.9892 1.24H24.4692C24.6532 1.24 24.8132 1.308 24.9492 1.444C25.0852 1.58 25.1532 1.74 25.1532 1.924V9.316C25.1532 9.5 25.0852 9.66 24.9492 9.796C24.8132 9.932 24.6532 10 24.4692 10H23.9892ZM33.0559 3.676C33.0559 4.428 32.8159 5.152 32.3359 5.848C31.8639 6.536 30.9439 7.452 29.5759 8.596C29.5599 8.612 29.5519 8.624 29.5519 8.632C29.5519 8.64 29.5559 8.644 29.5639 8.644H32.3959C32.5799 8.644 32.7399 8.712 32.8759 8.848C33.0119 8.976 33.0799 9.132 33.0799 9.316C33.0799 9.5 33.0119 9.66 32.8759 9.796C32.7399 9.932 32.5799 10 32.3959 10H27.9919C27.8079 10 27.6479 9.932 27.5119 9.796C27.3839 9.66 27.3199 9.5 27.3199 9.316C27.3199 8.86 27.4919 8.496 27.8359 8.224C29.2199 7.12 30.1479 6.26 30.6199 5.644C31.0919 5.028 31.3279 4.428 31.3279 3.844C31.3279 2.956 30.8519 2.512 29.8999 2.512C29.4119 2.512 28.8199 2.648 28.1239 2.92C27.9719 2.984 27.8279 2.972 27.6919 2.884C27.5639 2.796 27.4999 2.676 27.4999 2.524V2.32C27.4999 2.112 27.5559 1.924 27.6679 1.756C27.7879 1.58 27.9439 1.464 28.1359 1.408C28.8159 1.216 29.4839 1.12 30.1399 1.12C31.0759 1.12 31.7959 1.344 32.2999 1.792C32.8039 2.24 33.0559 2.868 33.0559 3.676ZM39.0997 3.148C38.8277 2.668 38.4117 2.428 37.8517 2.428C37.2917 2.428 36.8757 2.668 36.6037 3.148C36.3317 3.628 36.1957 4.452 36.1957 5.62C36.1957 6.788 36.3317 7.612 36.6037 8.092C36.8757 8.572 37.2917 8.812 37.8517 8.812C38.4117 8.812 38.8277 8.572 39.0997 8.092C39.3717 7.612 39.5077 6.788 39.5077 5.62C39.5077 4.452 39.3717 3.628 39.0997 3.148ZM40.3717 9.052C39.8197 9.764 38.9797 10.12 37.8517 10.12C36.7237 10.12 35.8797 9.764 35.3197 9.052C34.7677 8.34 34.4917 7.196 34.4917 5.62C34.4917 4.044 34.7677 2.9 35.3197 2.188C35.8797 1.476 36.7237 1.12 37.8517 1.12C38.9797 1.12 39.8197 1.476 40.3717 2.188C40.9317 2.9 41.2117 4.044 41.2117 5.62C41.2117 7.196 40.9317 8.34 40.3717 9.052ZM46.7755 3.148C46.5035 2.668 46.0875 2.428 45.5275 2.428C44.9675 2.428 44.5515 2.668 44.2795 3.148C44.0075 3.628 43.8715 4.452 43.8715 5.62C43.8715 6.788 44.0075 7.612 44.2795 8.092C44.5515 8.572 44.9675 8.812 45.5275 8.812C46.0875 8.812 46.5035 8.572 46.7755 8.092C47.0475 7.612 47.1835 6.788 47.1835 5.62C47.1835 4.452 47.0475 3.628 46.7755 3.148ZM48.0475 9.052C47.4955 9.764 46.6555 10.12 45.5275 10.12C44.3995 10.12 43.5555 9.764 42.9955 9.052C42.4435 8.34 42.1675 7.196 42.1675 5.62C42.1675 4.044 42.4435 2.9 42.9955 2.188C43.5555 1.476 44.3995 1.12 45.5275 1.12C46.6555 1.12 47.4955 1.476 48.0475 2.188C48.6075 2.9 48.8875 4.044 48.8875 5.62C48.8875 7.196 48.6075 8.34 48.0475 9.052ZM52.9633 6.028C51.9553 6.356 51.4513 6.852 51.4513 7.516C51.4513 7.932 51.6113 8.268 51.9313 8.524C52.2513 8.772 52.6753 8.896 53.2033 8.896C53.7313 8.896 54.1473 8.772 54.4513 8.524C54.7633 8.268 54.9193 7.932 54.9193 7.516C54.9193 7.164 54.7913 6.872 54.5353 6.64C54.2793 6.408 53.8233 6.204 53.1673 6.028C53.0953 6.004 53.0273 6.004 52.9633 6.028ZM53.2033 2.344C52.7393 2.344 52.3753 2.448 52.1113 2.656C51.8553 2.864 51.7273 3.14 51.7273 3.484C51.7273 4.068 52.1993 4.496 53.1433 4.768C53.2313 4.784 53.2953 4.784 53.3353 4.768C54.2473 4.48 54.7033 4.052 54.7033 3.484C54.7033 3.14 54.5713 2.864 54.3073 2.656C54.0433 2.448 53.6753 2.344 53.2033 2.344ZM55.6753 9.436C55.0833 9.892 54.2593 10.12 53.2033 10.12C52.1473 10.12 51.3233 9.892 50.7313 9.436C50.1393 8.98 49.8433 8.368 49.8433 7.6C49.8433 7.16 49.9873 6.756 50.2753 6.388C50.5633 6.012 50.9913 5.704 51.5593 5.464C51.5753 5.464 51.5833 5.456 51.5833 5.44C51.5833 5.432 51.5793 5.428 51.5713 5.428C51.1073 5.196 50.7473 4.896 50.4913 4.528C50.2433 4.16 50.1193 3.756 50.1193 3.316C50.1193 2.66 50.3913 2.132 50.9353 1.732C51.4793 1.324 52.2353 1.12 53.2033 1.12C54.1713 1.12 54.9273 1.324 55.4713 1.732C56.0153 2.132 56.2873 2.66 56.2873 3.316C56.2873 4.148 55.7913 4.792 54.7993 5.248C54.7913 5.248 54.7873 5.256 54.7873 5.272C54.7873 5.28 54.7913 5.284 54.7993 5.284C55.9753 5.732 56.5633 6.504 56.5633 7.6C56.5633 8.368 56.2673 8.98 55.6753 9.436ZM58.8151 4.468C58.7031 4.556 58.5831 4.568 58.4551 4.504C58.3351 4.44 58.2751 4.34 58.2751 4.204V3.724C58.2751 3.276 58.4551 2.912 58.8151 2.632L60.0991 1.648C60.4591 1.376 60.8671 1.24 61.3231 1.24H61.6831C61.8671 1.24 62.0231 1.308 62.1511 1.444C62.2871 1.58 62.3551 1.74 62.3551 1.924V9.316C62.3551 9.5 62.2871 9.66 62.1511 9.796C62.0231 9.932 61.8671 10 61.6831 10H61.3231C61.1391 10 60.9791 9.932 60.8431 9.796C60.7071 9.66 60.6391 9.5 60.6391 9.316V3.088L60.6271 3.076L60.6151 3.088L58.8151 4.468Z" fill="#FF0B0B"/>
</g>
<defs>
<clipPath id="clip0_1_3">
<rect width="64" height="11" fill="white"/>
</clipPath>
</defs>
</svg>
