<svg width="126" height="20" viewBox="0 0 126 20" fill="none" xmlns="http://www.w3.org/2000/svg">
<g clip-path="url(#clip0_1_3)">
<path d="M3.33431 19C2.96631 19 2.64631 18.864 2.37431 18.592C2.10231 18.32 1.96631 18 1.96631 17.632V2.848C1.96631 2.48 2.10231 2.16 2.37431 1.888C2.64631 1.616 2.96631 1.48 3.33431 1.48H3.93431C4.35031 1.48 4.73431 1.592 5.08631 1.816C5.43831 2.04 5.69431 2.336 5.85431 2.704L10.0543 11.776C10.0543 11.792 10.0623 11.8 10.0783 11.8C10.0943 11.8 10.1023 11.792 10.1023 11.776L14.3023 2.704C14.4623 2.336 14.7183 2.04 15.0703 1.816C15.4223 1.592 15.8063 1.48 16.2223 1.48H16.9183C17.2863 1.48 17.6063 1.616 17.8783 1.888C18.1503 2.16 18.2863 2.48 18.2863 2.848V17.632C18.2863 18 18.1503 18.32 17.8783 18.592C17.6063 18.864 17.2863 19 16.9183 19H16.3903C16.0223 19 15.7023 18.864 15.4303 18.592C15.1583 18.32 15.0223 18 15.0223 17.632V7.192C15.0223 7.176 15.0143 7.168 14.9983 7.168C14.9823 7.168 14.9743 7.176 14.9743 7.192L12.0943 13.36C11.9183 13.728 11.6463 14.032 11.2783 14.272C10.9263 14.496 10.5503 14.608 10.1503 14.608H10.0063C9.60631 14.608 9.22231 14.496 8.85431 14.272C8.50231 14.032 8.23831 13.728 8.06231 13.36L5.18231 7.192C5.18231 7.176 5.17431 7.168 5.15831 7.168C5.14231 7.168 5.13431 7.176 5.13431 7.192V17.632C5.13431 18 4.99831 18.32 4.72631 18.592C4.45431 18.864 4.13431 19 3.76631 19H3.33431ZM23.9237 19C23.5557 19 23.2357 18.864 22.9637 18.592C22.6917 18.32 22.5557 18 22.5557 17.632V2.848C22.5557 2.48 22.6917 2.16 22.9637 1.888C23.2357 1.616 23.5557 1.48 23.9237 1.48H24.8837C25.2517 1.48 25.5717 1.616 25.8437 1.888C26.1157 2.16 26.2517 2.48 26.2517 2.848V17.632C26.2517 18 26.1157 18.32 25.8437 18.592C25.5717 18.864 25.2517 19 24.8837 19H23.9237ZM31.8572 19C31.4892 19 31.1692 18.864 30.8972 18.592C30.6412 18.32 30.5132 18 30.5132 17.632V2.848C30.5132 2.48 30.6412 2.16 30.8972 1.888C31.1692 1.616 31.4892 1.48 31.8572 1.48H32.5052C32.8732 1.48 33.1932 1.616 33.4652 1.888C33.7372 2.16 33.8732 2.48 33.8732 2.848V9.064C33.8732 9.08 33.8812 9.088 33.8972 9.088C33.9132 9.088 33.9212 9.08 33.9212 9.064L38.7452 2.584C39.2732 1.848 39.9932 1.48 40.9052 1.48H42.1052C42.3772 1.48 42.5772 1.608 42.7052 1.864C42.8332 2.12 42.8092 2.352 42.6332 2.56L37.1132 9.712C37.0332 9.824 37.0332 9.936 37.1132 10.048L42.8972 17.896C43.0732 18.12 43.0972 18.36 42.9692 18.616C42.8412 18.872 42.6332 19 42.3452 19H41.1452C40.2332 19 39.5212 18.632 39.0092 17.896L33.9212 10.696C33.9212 10.68 33.9132 10.672 33.8972 10.672C33.8812 10.672 33.8732 10.68 33.8732 10.696V17.632C33.8732 18 33.7372 18.32 33.4652 18.592C33.1932 18.864 32.8732 19 32.5052 19H31.8572ZM47.4784 19C47.1104 19 46.7904 18.864 46.5184 18.592C46.2464 18.32 46.1104 18 46.1104 17.632V2.848C46.1104 2.48 46.2464 2.16 46.5184 1.888C46.7904 1.616 47.1104 1.48 47.4784 1.48H48.4384C48.8064 1.48 49.1264 1.616 49.3984 1.888C49.6704 2.16 49.8064 2.48 49.8064 2.848V17.632C49.8064 18 49.6704 18.32 49.3984 18.592C49.1264 18.864 48.8064 19 48.4384 19H47.4784ZM65.6119 6.352C65.6119 7.856 65.1319 9.304 64.1719 10.696C63.2279 12.072 61.3879 13.904 58.6519 16.192C58.6199 16.224 58.6039 16.248 58.6039 16.264C58.6039 16.28 58.6119 16.288 58.6279 16.288H64.2919C64.6599 16.288 64.9799 16.424 65.2519 16.696C65.5239 16.952 65.6599 17.264 65.6599 17.632C65.6599 18 65.5239 18.32 65.2519 18.592C64.9799 18.864 64.6599 19 64.2919 19H55.4839C55.1159 19 54.7959 18.864 54.5239 18.592C54.2679 18.32 54.1399 18 54.1399 17.632C54.1399 16.72 54.4839 15.992 55.1719 15.448C57.9399 13.24 59.7959 11.52 60.7399 10.288C61.6839 9.056 62.1559 7.856 62.1559 6.688C62.1559 4.912 61.2039 4.024 59.2999 4.024C58.3239 4.024 57.1399 4.296 55.7479 4.84C55.4439 4.968 55.1559 4.944 54.8839 4.768C54.6279 4.592 54.4999 4.352 54.4999 4.048V3.64C54.4999 3.224 54.6119 2.848 54.8359 2.512C55.0759 2.16 55.3879 1.928 55.7719 1.816C57.1319 1.432 58.4679 1.24 59.7799 1.24C61.6519 1.24 63.0919 1.688 64.0999 2.584C65.1079 3.48 65.6119 4.736 65.6119 6.352ZM77.6994 5.296C77.1554 4.336 76.3234 3.856 75.2034 3.856C74.0834 3.856 73.2514 4.336 72.7074 5.296C72.1634 6.256 71.8914 7.904 71.8914 10.24C71.8914 12.576 72.1634 14.224 72.7074 15.184C73.2514 16.144 74.0834 16.624 75.2034 16.624C76.3234 16.624 77.1554 16.144 77.6994 15.184C78.2434 14.224 78.5154 12.576 78.5154 10.24C78.5154 7.904 78.2434 6.256 77.6994 5.296ZM80.2434 17.104C79.1394 18.528 77.4594 19.24 75.2034 19.24C72.9474 19.24 71.2594 18.528 70.1394 17.104C69.0354 15.68 68.4834 13.392 68.4834 10.24C68.4834 7.088 69.0354 4.8 70.1394 3.376C71.2594 1.952 72.9474 1.24 75.2034 1.24C77.4594 1.24 79.1394 1.952 80.2434 3.376C81.3634 4.8 81.9234 7.088 81.9234 10.24C81.9234 13.392 81.3634 15.68 80.2434 17.104ZM93.051 5.296C92.507 4.336 91.675 3.856 90.555 3.856C89.435 3.856 88.603 4.336 88.059 5.296C87.515 6.256 87.243 7.904 87.243 10.24C87.243 12.576 87.515 14.224 88.059 15.184C88.603 16.144 89.435 16.624 90.555 16.624C91.675 16.624 92.507 16.144 93.051 15.184C93.595 14.224 93.867 12.576 93.867 10.24C93.867 7.904 93.595 6.256 93.051 5.296ZM95.595 17.104C94.491 18.528 92.811 19.24 90.555 19.24C88.299 19.24 86.611 18.528 85.491 17.104C84.387 15.68 83.835 13.392 83.835 10.24C83.835 7.088 84.387 4.8 85.491 3.376C86.611 1.952 88.299 1.24 90.555 1.24C92.811 1.24 94.491 1.952 95.595 3.376C96.715 4.8 97.275 7.088 97.275 10.24C97.275 13.392 96.715 15.68 95.595 17.104ZM105.427 11.056C103.411 11.712 102.403 12.704 102.403 14.032C102.403 14.864 102.723 15.536 103.363 16.048C104.003 16.544 104.851 16.792 105.907 16.792C106.963 16.792 107.795 16.544 108.403 16.048C109.027 15.536 109.339 14.864 109.339 14.032C109.339 13.328 109.083 12.744 108.571 12.28C108.059 11.816 107.147 11.408 105.835 11.056C105.691 11.008 105.555 11.008 105.427 11.056ZM105.907 3.688C104.979 3.688 104.251 3.896 103.723 4.312C103.211 4.728 102.955 5.28 102.955 5.968C102.955 7.136 103.899 7.992 105.787 8.536C105.963 8.568 106.091 8.568 106.171 8.536C107.995 7.96 108.907 7.104 108.907 5.968C108.907 5.28 108.643 4.728 108.115 4.312C107.587 3.896 106.851 3.688 105.907 3.688ZM110.851 17.872C109.667 18.784 108.019 19.24 105.907 19.24C103.795 19.24 102.147 18.784 100.963 17.872C99.7786 16.96 99.1866 15.736 99.1866 14.2C99.1866 13.32 99.4746 12.512 100.051 11.776C100.627 11.024 101.483 10.408 102.619 9.928C102.651 9.928 102.667 9.912 102.667 9.88C102.667 9.864 102.659 9.856 102.643 9.856C101.715 9.392 100.995 8.792 100.483 8.056C99.9866 7.32 99.7386 6.512 99.7386 5.632C99.7386 4.32 100.283 3.264 101.371 2.464C102.459 1.648 103.971 1.24 105.907 1.24C107.843 1.24 109.355 1.648 110.443 2.464C111.531 3.264 112.075 4.32 112.075 5.632C112.075 7.296 111.083 8.584 109.099 9.496C109.083 9.496 109.075 9.512 109.075 9.544C109.075 9.56 109.083 9.568 109.099 9.568C111.451 10.464 112.627 12.008 112.627 14.2C112.627 15.736 112.035 16.96 110.851 17.872ZM117.13 7.936C116.906 8.112 116.666 8.136 116.41 8.008C116.17 7.88 116.05 7.68 116.05 7.408V6.448C116.05 5.552 116.41 4.824 117.13 4.264L119.698 2.296C120.418 1.752 121.234 1.48 122.146 1.48H122.866C123.234 1.48 123.546 1.616 123.802 1.888C124.074 2.16 124.21 2.48 124.21 2.848V17.632C124.21 18 124.074 18.32 123.802 18.592C123.546 18.864 123.234 19 122.866 19H122.146C121.778 19 121.458 18.864 121.186 18.592C120.914 18.32 120.778 18 120.778 17.632V5.176L120.754 5.152L120.73 5.176L117.13 7.936Z" fill="white"/>
</g>
<defs>
<clipPath id="clip0_1_3">
<rect width="126" height="20" fill="white"/>
</clipPath>
</defs>
</svg>
