<?xml version="1.0" encoding="UTF-8" standalone="no"?>
<svg
   width="200"
   height="28"
   viewBox="0 0 56 28"
   fill="none"
   version="1.1"
   id="svg4"
   sodipodi:docname="games.svg"
   inkscape:version="1.1.1 (3bf5ae0d25, 2021-09-20)"
   xmlns:inkscape="http://www.inkscape.org/namespaces/inkscape"
   xmlns:sodipodi="http://sodipodi.sourceforge.net/DTD/sodipodi-0.dtd"
   xmlns="http://www.w3.org/2000/svg"
   xmlns:svg="http://www.w3.org/2000/svg">
  <defs
     id="defs8">
    <rect
       x="-57.632933"
       y="-32.933105"
       width="346.4837"
       height="129.6741"
       id="rect55991" />
  </defs>
  <sodipodi:namedview
     id="namedview6"
     pagecolor="#505050"
     bordercolor="#ffffff"
     borderopacity="1"
     inkscape:pageshadow="0"
     inkscape:pageopacity="0"
     inkscape:pagecheckerboard="1"
     showgrid="false"
     width="150px"
     inkscape:zoom="2.915"
     inkscape:cx="89.536878"
     inkscape:cy="-34.819897"
     inkscape:window-width="1920"
     inkscape:window-height="1137"
     inkscape:window-x="-8"
     inkscape:window-y="-8"
     inkscape:window-maximized="1"
     inkscape:current-layer="layer1" />
  <g
     inkscape:groupmode="layer"
     id="layer1"
     inkscape:label="Layer 1">
    <path
       id="rect928"
       style="fill:#ffffff"
       d="m -63.91327,1.9786508 h 24.44254 l -5.763933,24.6140652 h -24.44254 z"
       sodipodi:nodetypes="ccccc" />
    <text
       xml:space="preserve"
       style="font-size:24px;line-height:1.25;font-family:sans-serif;fill:#ffffff"
       x="-4.4391079"
       y="25.728989"
       id="text34335"><tspan
         sodipodi:role="line"
         id="tspan34333"
         x="-4.4391079"
         y="25.728989" /></text>
    <text
       xml:space="preserve"
       style="font-style:italic;font-variant:normal;font-weight:bold;font-stretch:normal;font-size:26.6667px;line-height:1.25;font-family:sans-serif;-inkscape-font-specification:'sans-serif, Bold Italic';font-variant-ligatures:normal;font-variant-caps:normal;font-variant-numeric:normal;font-variant-east-asian:normal;white-space:pre;inline-size:129.704;fill:#ffffff"
       x="-3.2384224"
       y="25.385935"
       id="text37551"
       transform="translate(-4.4596912,0.34305317)"><tspan
         x="-3.2384224"
         y="25.385935"
         id="tspan77277"><tspan
           dx="0 19.648462 22.669302 21.653671 18.177109 21.653671 20.312523"
           id="tspan77275">YOUTUBE</tspan></tspan></text>
    <text
       xml:space="preserve"
       style="font-style:italic;font-variant:normal;font-weight:normal;font-stretch:normal;font-size:29.3333px;line-height:1.25;font-family:sans-serif;-inkscape-font-specification:'sans-serif, Italic';font-variant-ligatures:normal;font-variant-caps:normal;font-variant-numeric:normal;font-variant-east-asian:normal;fill:#ffffff"
       x="-41.068642"
       y="24.963213"
       id="text47045"><tspan
         sodipodi:role="line"
         id="tspan47043"
         x="-41.068642"
         y="24.963213">GAMES</tspan></text>
    <text
       xml:space="preserve"
       transform="translate(-72)"
       id="text55989"
       style="line-height:1.25;font-family:sans-serif;font-size:24px;white-space:pre;shape-inside:url(#rect55991)" />
    <g
       id="g70338"
       transform="translate(-273.84683,-210.33747)">
      <g
         id="g70283">
	<g
   id="g70281">
		<path
   d="m 447.303,128.681 c -0.427,-1.259 -0.875,-3.264 -1.408,-5.525 -3.52,-14.315 -6.827,-27.84 -19.904,-32.832 l -62.08,-23.616 c -12.032,-4.565 -25.515,-2.923 -36.139,4.48 l -3.84,3.435 c -3.115,3.563 -7.339,8.021 -10.347,10.88 H 199.197 c -2.539,-2.667 -5.931,-6.592 -8.768,-10.112 l -4.437,-4.16 C 175.368,63.807 161.843,62.1 149.875,66.708 L 87.73,90.324 c -13.013,4.949 -16.277,18.325 -19.755,32.512 -0.533,2.155 -0.981,4.117 -0.811,4.117 0,0 0.021,0 0.043,-0.021 -21.162,41.728 -121.813,252.97 -27.584,315.328 13.483,8.917 31.424,7.509 43.691,-3.456 l 73.856,-66.219 c 6.507,-5.845 14.784,-9.067 23.275,-9.067 h 152.853 c 8.491,0 16.747,3.221 23.275,9.067 l 73.856,66.219 c 6.955,6.229 15.616,9.408 24.277,9.408 6.955,0 13.888,-2.069 19.883,-6.293 83.157,-58.347 8.234,-239.425 -27.286,-313.238 z m -105.834,20.821 c 11.776,0 21.333,9.557 21.333,21.333 0,11.776 -9.557,21.333 -21.333,21.333 -11.776,0 -21.333,-9.557 -21.333,-21.333 0,-11.776 9.557,-21.333 21.333,-21.333 z m -128,106.667 h -21.333 v 21.333 c 0,11.776 -9.536,21.333 -21.333,21.333 -11.797,0 -21.333,-9.557 -21.333,-21.333 v -21.333 h -21.333 c -11.797,0 -21.333,-9.557 -21.333,-21.333 0,-11.776 9.536,-21.333 21.333,-21.333 H 149.47 V 192.17 c 0,-11.776 9.536,-21.333 21.333,-21.333 11.797,0 21.333,9.557 21.333,21.333 v 21.333 h 21.333 c 11.797,0 21.333,9.557 21.333,21.333 0,11.776 -9.536,21.333 -21.333,21.333 z m 85.333,-21.333 c -11.776,0 -21.333,-9.557 -21.333,-21.333 0,-11.776 9.557,-21.333 21.333,-21.333 11.776,0 21.333,9.557 21.333,21.333 0,11.776 -9.557,21.333 -21.333,21.333 z m 42.667,42.666 c -11.776,0 -21.333,-9.557 -21.333,-21.333 0,-11.776 9.557,-21.333 21.333,-21.333 11.776,0 21.333,9.557 21.333,21.333 0,11.776 -9.557,21.333 -21.333,21.333 z m 42.666,-42.666 c -11.776,0 -21.333,-9.557 -21.333,-21.333 0,-11.776 9.557,-21.333 21.333,-21.333 11.776,0 21.333,9.557 21.333,21.333 0,11.776 -9.557,21.333 -21.333,21.333 z"
   id="path70279" />

	</g>

</g>
      <g
         id="g70285">
</g>
      <g
         id="g70287">
</g>
      <g
         id="g70289">
</g>
      <g
         id="g70291">
</g>
      <g
         id="g70293">
</g>
      <g
         id="g70295">
</g>
      <g
         id="g70297">
</g>
      <g
         id="g70299">
</g>
      <g
         id="g70301">
</g>
      <g
         id="g70303">
</g>
      <g
         id="g70305">
</g>
      <g
         id="g70307">
</g>
      <g
         id="g70309">
</g>
      <g
         id="g70311">
</g>
      <g
         id="g70313">
</g>
    </g>
    <g
       id="g74459"
       transform="translate(-202.04457,-203.54536)">
      <g
         id="g74404">
	<g
   id="g74402">
		<path
   d="m 447.303,128.681 c -0.427,-1.259 -0.875,-3.264 -1.408,-5.525 -3.52,-14.315 -6.827,-27.84 -19.904,-32.832 l -62.08,-23.616 c -12.032,-4.565 -25.515,-2.923 -36.139,4.48 l -3.84,3.435 c -3.115,3.563 -7.339,8.021 -10.347,10.88 H 199.197 c -2.539,-2.667 -5.931,-6.592 -8.768,-10.112 l -4.437,-4.16 C 175.368,63.807 161.843,62.1 149.875,66.708 L 87.73,90.324 c -13.013,4.949 -16.277,18.325 -19.755,32.512 -0.533,2.155 -0.981,4.117 -0.811,4.117 0,0 0.021,0 0.043,-0.021 -21.162,41.728 -121.813,252.97 -27.584,315.328 13.483,8.917 31.424,7.509 43.691,-3.456 l 73.856,-66.219 c 6.507,-5.845 14.784,-9.067 23.275,-9.067 h 152.853 c 8.491,0 16.747,3.221 23.275,9.067 l 73.856,66.219 c 6.955,6.229 15.616,9.408 24.277,9.408 6.955,0 13.888,-2.069 19.883,-6.293 83.157,-58.347 8.234,-239.425 -27.286,-313.238 z m -105.834,20.821 c 11.776,0 21.333,9.557 21.333,21.333 0,11.776 -9.557,21.333 -21.333,21.333 -11.776,0 -21.333,-9.557 -21.333,-21.333 0,-11.776 9.557,-21.333 21.333,-21.333 z m -128,106.667 h -21.333 v 21.333 c 0,11.776 -9.536,21.333 -21.333,21.333 -11.797,0 -21.333,-9.557 -21.333,-21.333 v -21.333 h -21.333 c -11.797,0 -21.333,-9.557 -21.333,-21.333 0,-11.776 9.536,-21.333 21.333,-21.333 H 149.47 V 192.17 c 0,-11.776 9.536,-21.333 21.333,-21.333 11.797,0 21.333,9.557 21.333,21.333 v 21.333 h 21.333 c 11.797,0 21.333,9.557 21.333,21.333 0,11.776 -9.536,21.333 -21.333,21.333 z m 85.333,-21.333 c -11.776,0 -21.333,-9.557 -21.333,-21.333 0,-11.776 9.557,-21.333 21.333,-21.333 11.776,0 21.333,9.557 21.333,21.333 0,11.776 -9.557,21.333 -21.333,21.333 z m 42.667,42.666 c -11.776,0 -21.333,-9.557 -21.333,-21.333 0,-11.776 9.557,-21.333 21.333,-21.333 11.776,0 21.333,9.557 21.333,21.333 0,11.776 -9.557,21.333 -21.333,21.333 z m 42.666,-42.666 c -11.776,0 -21.333,-9.557 -21.333,-21.333 0,-11.776 9.557,-21.333 21.333,-21.333 11.776,0 21.333,9.557 21.333,21.333 0,11.776 -9.557,21.333 -21.333,21.333 z"
   id="path74400" />

	</g>

</g>
      <g
         id="g74406">
</g>
      <g
         id="g74408">
</g>
      <g
         id="g74410">
</g>
      <g
         id="g74412">
</g>
      <g
         id="g74414">
</g>
      <g
         id="g74416">
</g>
      <g
         id="g74418">
</g>
      <g
         id="g74420">
</g>
      <g
         id="g74422">
</g>
      <g
         id="g74424">
</g>
      <g
         id="g74426">
</g>
      <g
         id="g74428">
</g>
      <g
         id="g74430">
</g>
      <g
         id="g74432">
</g>
      <g
         id="g74434">
</g>
    </g>
    <g
       id="g74538"
       transform="matrix(0.03523523,0,0,0.03523523,-63.628496,4.8412887)"
       style="fill:#999999">
      <g
         transform="translate(-1)"
         id="g74477"
         style="fill:#999999">
	<g
   id="g74475"
   style="fill:#999999">
		<g
   id="g74473"
   style="fill:#999999">
			<path
   d="m 214.609,213.605 h -21.333 v -21.333 c 0,-11.782 -9.551,-21.333 -21.333,-21.333 -11.782,0 -21.333,9.551 -21.333,21.333 v 21.333 h -21.333 c -11.782,0 -21.333,9.551 -21.333,21.333 0,11.782 9.551,21.333 21.333,21.333 h 21.333 v 21.333 c 0,11.782 9.551,21.333 21.333,21.333 11.782,0 21.333,-9.551 21.333,-21.333 v -21.333 h 21.333 c 11.782,0 21.333,-9.551 21.333,-21.333 0.001,-11.782 -9.551,-21.333 -21.333,-21.333 z"
   id="path74461"
   style="fill:#999999" />

			<path
   d="m 500.924,269.309 c -12.915,-49.866 -33.027,-100.133 -53.035,-141.855 -0.273,-1.775 -1.598,-7.188 -2.052,-8.96 -1.151,-4.496 -2.174,-7.968 -3.373,-11.107 -3.242,-8.489 -6.404,-13.576 -15.335,-16.973 l -62.11,-23.598 c -12.051,-4.584 -25.525,-2.901 -36.12,4.506 l -2.105,1.472 -1.696,1.93 c -1.745,1.985 -4.607,5.115 -7.619,8.168 -0.822,0.829 -0.822,0.829 -1.629,1.624 -0.394,0.386 -0.773,0.751 -1.132,1.091 H 200.334 c -1.075,-1.142 -1.075,-1.142 -1.908,-2.056 -2.723,-3.006 -5.302,-6.099 -6.856,-8.047 l -1.925,-2.413 -2.53,-1.768 c -10.596,-7.408 -24.07,-9.09 -36.128,-4.503 L 88.895,90.411 c -8.969,3.412 -12.121,8.51 -15.348,17.028 -1.184,3.126 -2.188,6.564 -3.337,11.078 -0.4,1.572 -1.694,6.865 -1.941,7.831 -19.259,38.796 -41.47,92.992 -54.698,143.469 -21.455,81.869 -17.351,143.076 27.181,172.546 13.705,9.031 31.564,7.364 43.661,-3.43 l 73.894,-66.253 c 6.541,-5.872 14.782,-9.057 23.284,-9.057 h 152.832 c 8.502,0 16.743,3.185 23.274,9.048 l 73.866,66.228 c 12.24,10.921 30.427,12.721 44.123,3.176 42.858,-30.084 46.404,-91.037 25.238,-172.766 z M 455.757,403.285 386.191,340.912 C 371.875,328.06 353.494,320.956 334.424,320.956 H 181.592 c -19.07,0 -37.45,7.104 -51.777,19.965 L 60.057,403.465 C 40.399,385.413 38.761,342.005 54.844,280.633 67.19,233.522 88.322,181.961 106.39,146.326 c 1.399,-2.752 2.112,-5.086 3.217,-9.411 0.319,-1.249 1.62,-6.572 1.952,-7.876 0.16,-0.629 0.314,-1.22 0.461,-1.772 l 50.992,-19.374 c 1.186,1.381 2.463,2.836 3.793,4.303 1.113,1.222 1.113,1.222 2.273,2.457 9.927,10.492 13.691,13.62 24.204,13.62 h 128 c 10.147,0 13.785,-2.861 24.417,-13.27 1.094,-1.079 1.094,-1.079 2.155,-2.148 1.719,-1.742 3.365,-3.468 4.858,-5.073 l 51.321,19.499 c 0.151,0.56 0.308,1.159 0.471,1.797 0.382,1.493 1.69,6.836 1.931,7.787 1.066,4.206 1.73,6.435 2.992,9.058 18.908,39.428 38.104,87.404 50.193,134.082 15.8,61.011 14.632,104.608 -3.863,123.28 z"
   id="path74463"
   style="fill:#999999" />

			<path
   d="m 342.609,192.271 c 11.776,0 21.333,-9.557 21.333,-21.333 0,-11.776 -9.557,-21.333 -21.333,-21.333 -11.776,0 -21.333,9.557 -21.333,21.333 0,11.776 9.557,21.333 21.333,21.333 z"
   id="path74465"
   style="fill:#999999" />

			<path
   d="m 342.609,234.938 c -11.776,0 -21.333,9.557 -21.333,21.333 0,11.776 9.557,21.333 21.333,21.333 11.776,0 21.333,-9.557 21.333,-21.333 0,-11.776 -9.557,-21.333 -21.333,-21.333 z"
   id="path74467"
   style="fill:#999999" />

			<path
   d="m 299.943,192.271 c -11.776,0 -21.333,9.557 -21.333,21.333 0,11.776 9.557,21.333 21.333,21.333 11.776,0 21.333,-9.557 21.333,-21.333 0,-11.776 -9.557,-21.333 -21.333,-21.333 z"
   id="path74469"
   style="fill:#999999" />

			<path
   d="m 385.276,192.271 c -11.776,0 -21.333,9.557 -21.333,21.333 0,11.776 9.557,21.333 21.333,21.333 11.776,0 21.333,-9.557 21.333,-21.333 0,-11.776 -9.557,-21.333 -21.333,-21.333 z"
   id="path74471"
   style="fill:#999999" />

		</g>

	</g>

</g>
      <g
         id="g74479"
         style="fill:#999999">
</g>
      <g
         id="g74481"
         style="fill:#999999">
</g>
      <g
         id="g74483"
         style="fill:#999999">
</g>
      <g
         id="g74485"
         style="fill:#999999">
</g>
      <g
         id="g74487"
         style="fill:#999999">
</g>
      <g
         id="g74489"
         style="fill:#999999">
</g>
      <g
         id="g74491"
         style="fill:#999999">
</g>
      <g
         id="g74493"
         style="fill:#999999">
</g>
      <g
         id="g74495"
         style="fill:#999999">
</g>
      <g
         id="g74497"
         style="fill:#999999">
</g>
      <g
         id="g74499"
         style="fill:#999999">
</g>
      <g
         id="g74501"
         style="fill:#999999">
</g>
      <g
         id="g74503"
         style="fill:#999999">
</g>
      <g
         id="g74505"
         style="fill:#999999">
</g>
      <g
         id="g74507"
         style="fill:#999999">
</g>
    </g>
  </g>
</svg>
