<?xml version="1.0" encoding="UTF-8" standalone="no"?>
<svg
   width="200"
   height="28"
   viewBox="0 0 56 28"
   fill="none"
   version="1.1"
   id="svg4"
   sodipodi:docname="roblox.svg"
   inkscape:version="1.1.1 (3bf5ae0d25, 2021-09-20)"
   xmlns:inkscape="http://www.inkscape.org/namespaces/inkscape"
   xmlns:sodipodi="http://sodipodi.sourceforge.net/DTD/sodipodi-0.dtd"
   xmlns="http://www.w3.org/2000/svg"
   xmlns:svg="http://www.w3.org/2000/svg">
  <defs
     id="defs8">
    <rect
       x="-57.632933"
       y="-32.933105"
       width="346.4837"
       height="129.6741"
       id="rect55991" />
  </defs>
  <sodipodi:namedview
     id="namedview6"
     pagecolor="#505050"
     bordercolor="#ffffff"
     borderopacity="1"
     inkscape:pageshadow="0"
     inkscape:pageopacity="0"
     inkscape:pagecheckerboard="1"
     showgrid="false"
     width="150px"
     inkscape:zoom="2.915"
     inkscape:cx="59.348199"
     inkscape:cy="60.891938"
     inkscape:window-width="1920"
     inkscape:window-height="1137"
     inkscape:window-x="-8"
     inkscape:window-y="-8"
     inkscape:window-maximized="1"
     inkscape:current-layer="layer1" />
  <g
     inkscape:groupmode="layer"
     id="layer1"
     inkscape:label="Layer 1">
    <path
       id="rect928"
       style="fill:#ffffff"
       d="m -63.91327,1.9786508 h 24.44254 l -5.763933,24.6140652 h -24.44254 z"
       sodipodi:nodetypes="ccccc" />
    <text
       xml:space="preserve"
       style="font-size:24px;line-height:1.25;font-family:sans-serif;fill:#ffffff"
       x="-4.4391079"
       y="25.728989"
       id="text34335"><tspan
         sodipodi:role="line"
         id="tspan34333"
         x="-4.4391079"
         y="25.728989" /></text>
    <text
       xml:space="preserve"
       style="font-style:italic;font-variant:normal;font-weight:bold;font-stretch:normal;font-size:26.6667px;line-height:1.25;font-family:sans-serif;-inkscape-font-specification:'sans-serif, Bold Italic';font-variant-ligatures:normal;font-variant-caps:normal;font-variant-numeric:normal;font-variant-east-asian:normal;white-space:pre;inline-size:129.704;fill:#ffffff"
       x="-3.2384224"
       y="25.385935"
       id="text37551"
       transform="translate(-4.4596912,0.34305317)"><tspan
         x="-3.2384224"
         y="25.385935"
         id="tspan86027"><tspan
           dx="0 19.648462 22.669302 21.653671 18.177109 21.653671 20.312523"
           id="tspan86025">YOUTUBE</tspan></tspan></text>
    <text
       xml:space="preserve"
       style="font-style:italic;font-variant:normal;font-weight:normal;font-stretch:normal;font-size:29.3333px;line-height:1.25;font-family:sans-serif;-inkscape-font-specification:'sans-serif, Italic';font-variant-ligatures:normal;font-variant-caps:normal;font-variant-numeric:normal;font-variant-east-asian:normal;fill:#ffffff"
       x="-41.068642"
       y="24.963213"
       id="text47045"><tspan
         sodipodi:role="line"
         id="tspan47043"
         x="-41.068642"
         y="24.963213">ROBLOX</tspan></text>
    <text
       xml:space="preserve"
       transform="translate(-72)"
       id="text55989"
       style="line-height:1.25;font-family:sans-serif;font-size:24px;white-space:pre;shape-inside:url(#rect55991)" />
    <g
       id="g70338"
       transform="translate(-273.84683,-210.33747)">
      <g
         id="g70283">
	<g
   id="g70281">
		<path
   d="m 447.303,128.681 c -0.427,-1.259 -0.875,-3.264 -1.408,-5.525 -3.52,-14.315 -6.827,-27.84 -19.904,-32.832 l -62.08,-23.616 c -12.032,-4.565 -25.515,-2.923 -36.139,4.48 l -3.84,3.435 c -3.115,3.563 -7.339,8.021 -10.347,10.88 H 199.197 c -2.539,-2.667 -5.931,-6.592 -8.768,-10.112 l -4.437,-4.16 C 175.368,63.807 161.843,62.1 149.875,66.708 L 87.73,90.324 c -13.013,4.949 -16.277,18.325 -19.755,32.512 -0.533,2.155 -0.981,4.117 -0.811,4.117 0,0 0.021,0 0.043,-0.021 -21.162,41.728 -121.813,252.97 -27.584,315.328 13.483,8.917 31.424,7.509 43.691,-3.456 l 73.856,-66.219 c 6.507,-5.845 14.784,-9.067 23.275,-9.067 h 152.853 c 8.491,0 16.747,3.221 23.275,9.067 l 73.856,66.219 c 6.955,6.229 15.616,9.408 24.277,9.408 6.955,0 13.888,-2.069 19.883,-6.293 83.157,-58.347 8.234,-239.425 -27.286,-313.238 z m -105.834,20.821 c 11.776,0 21.333,9.557 21.333,21.333 0,11.776 -9.557,21.333 -21.333,21.333 -11.776,0 -21.333,-9.557 -21.333,-21.333 0,-11.776 9.557,-21.333 21.333,-21.333 z m -128,106.667 h -21.333 v 21.333 c 0,11.776 -9.536,21.333 -21.333,21.333 -11.797,0 -21.333,-9.557 -21.333,-21.333 v -21.333 h -21.333 c -11.797,0 -21.333,-9.557 -21.333,-21.333 0,-11.776 9.536,-21.333 21.333,-21.333 H 149.47 V 192.17 c 0,-11.776 9.536,-21.333 21.333,-21.333 11.797,0 21.333,9.557 21.333,21.333 v 21.333 h 21.333 c 11.797,0 21.333,9.557 21.333,21.333 0,11.776 -9.536,21.333 -21.333,21.333 z m 85.333,-21.333 c -11.776,0 -21.333,-9.557 -21.333,-21.333 0,-11.776 9.557,-21.333 21.333,-21.333 11.776,0 21.333,9.557 21.333,21.333 0,11.776 -9.557,21.333 -21.333,21.333 z m 42.667,42.666 c -11.776,0 -21.333,-9.557 -21.333,-21.333 0,-11.776 9.557,-21.333 21.333,-21.333 11.776,0 21.333,9.557 21.333,21.333 0,11.776 -9.557,21.333 -21.333,21.333 z m 42.666,-42.666 c -11.776,0 -21.333,-9.557 -21.333,-21.333 0,-11.776 9.557,-21.333 21.333,-21.333 11.776,0 21.333,9.557 21.333,21.333 0,11.776 -9.557,21.333 -21.333,21.333 z"
   id="path70279" />

	</g>

</g>
      <g
         id="g70285">
</g>
      <g
         id="g70287">
</g>
      <g
         id="g70289">
</g>
      <g
         id="g70291">
</g>
      <g
         id="g70293">
</g>
      <g
         id="g70295">
</g>
      <g
         id="g70297">
</g>
      <g
         id="g70299">
</g>
      <g
         id="g70301">
</g>
      <g
         id="g70303">
</g>
      <g
         id="g70305">
</g>
      <g
         id="g70307">
</g>
      <g
         id="g70309">
</g>
      <g
         id="g70311">
</g>
      <g
         id="g70313">
</g>
    </g>
    <g
       id="g74459"
       transform="translate(-202.04457,-203.54536)">
      <g
         id="g74404">
	<g
   id="g74402">
		<path
   d="m 447.303,128.681 c -0.427,-1.259 -0.875,-3.264 -1.408,-5.525 -3.52,-14.315 -6.827,-27.84 -19.904,-32.832 l -62.08,-23.616 c -12.032,-4.565 -25.515,-2.923 -36.139,4.48 l -3.84,3.435 c -3.115,3.563 -7.339,8.021 -10.347,10.88 H 199.197 c -2.539,-2.667 -5.931,-6.592 -8.768,-10.112 l -4.437,-4.16 C 175.368,63.807 161.843,62.1 149.875,66.708 L 87.73,90.324 c -13.013,4.949 -16.277,18.325 -19.755,32.512 -0.533,2.155 -0.981,4.117 -0.811,4.117 0,0 0.021,0 0.043,-0.021 -21.162,41.728 -121.813,252.97 -27.584,315.328 13.483,8.917 31.424,7.509 43.691,-3.456 l 73.856,-66.219 c 6.507,-5.845 14.784,-9.067 23.275,-9.067 h 152.853 c 8.491,0 16.747,3.221 23.275,9.067 l 73.856,66.219 c 6.955,6.229 15.616,9.408 24.277,9.408 6.955,0 13.888,-2.069 19.883,-6.293 83.157,-58.347 8.234,-239.425 -27.286,-313.238 z m -105.834,20.821 c 11.776,0 21.333,9.557 21.333,21.333 0,11.776 -9.557,21.333 -21.333,21.333 -11.776,0 -21.333,-9.557 -21.333,-21.333 0,-11.776 9.557,-21.333 21.333,-21.333 z m -128,106.667 h -21.333 v 21.333 c 0,11.776 -9.536,21.333 -21.333,21.333 -11.797,0 -21.333,-9.557 -21.333,-21.333 v -21.333 h -21.333 c -11.797,0 -21.333,-9.557 -21.333,-21.333 0,-11.776 9.536,-21.333 21.333,-21.333 H 149.47 V 192.17 c 0,-11.776 9.536,-21.333 21.333,-21.333 11.797,0 21.333,9.557 21.333,21.333 v 21.333 h 21.333 c 11.797,0 21.333,9.557 21.333,21.333 0,11.776 -9.536,21.333 -21.333,21.333 z m 85.333,-21.333 c -11.776,0 -21.333,-9.557 -21.333,-21.333 0,-11.776 9.557,-21.333 21.333,-21.333 11.776,0 21.333,9.557 21.333,21.333 0,11.776 -9.557,21.333 -21.333,21.333 z m 42.667,42.666 c -11.776,0 -21.333,-9.557 -21.333,-21.333 0,-11.776 9.557,-21.333 21.333,-21.333 11.776,0 21.333,9.557 21.333,21.333 0,11.776 -9.557,21.333 -21.333,21.333 z m 42.666,-42.666 c -11.776,0 -21.333,-9.557 -21.333,-21.333 0,-11.776 9.557,-21.333 21.333,-21.333 11.776,0 21.333,9.557 21.333,21.333 0,11.776 -9.557,21.333 -21.333,21.333 z"
   id="path74400" />

	</g>

</g>
      <g
         id="g74406">
</g>
      <g
         id="g74408">
</g>
      <g
         id="g74410">
</g>
      <g
         id="g74412">
</g>
      <g
         id="g74414">
</g>
      <g
         id="g74416">
</g>
      <g
         id="g74418">
</g>
      <g
         id="g74420">
</g>
      <g
         id="g74422">
</g>
      <g
         id="g74424">
</g>
      <g
         id="g74426">
</g>
      <g
         id="g74428">
</g>
      <g
         id="g74430">
</g>
      <g
         id="g74432">
</g>
      <g
         id="g74434">
</g>
    </g>
    <g
       style="fill:#999999"
       id="g81035"
       transform="matrix(0.66684259,0,0,0.66684259,-63.919735,4.8281032)">
      <path
         fill-rule="evenodd"
         clip-rule="evenodd"
         d="M 6,1 27,6 22,27 1,22 Z M 12.4615,11.5 16.5,12.4615 15.5385,16.5 11.5,15.5384 Z"
         fill="#aaaaaa"
         id="path81026"
         style="fill:#999999" />
    </g>
  </g>
</svg>
